<svg xmlns="http://www.w3.org/2000/svg" viewBox="0 0 28.41 13.9"><defs><style>.cls-1{fill:#28313f;}.cls-2{fill:#8ebf47;}</style></defs><g id="Livello_2" data-name="Livello 2"><g id="Livello_3" data-name="Livello 3"><path class="cls-1" d="M10.37,9.6c0-1.94,0-3.95.07-5.2h0c-.56,2.08-1.62,5.37-2.94,9.5H5.09c-1-3.62-2.21-7.37-2.8-9.5h0c.08,1.31.18,3.49.18,5.41V13.9H0V2.67H3.94C5.07,6.15,6.1,9.2,6.44,10.74h0C6.93,9,7.94,6,9,2.67h4V13.9H10.37Z"/><path class="cls-1" d="M23.74,11.72H17.45v-9H14.72V13.9h6.4a1,1,0,0,0,.73-.3l1.89-1.88Z"/><polygon class="cls-2" points="18.68 2.67 18.68 2.67 20.02 1.33 18.68 2.67"/><polygon class="cls-2" points="25.74 9.72 27.07 8.39 25.74 9.72 25.74 9.72"/><polygon class="cls-2" points="28.41 7.05 28.41 0.99 25.74 3.66 25.74 9.72 28.41 7.05"/><polygon class="cls-2" points="28.41 7.06 28.41 7.05 27.07 8.39 28.41 7.06"/><polygon class="cls-2" points="18.68 2.67 24.75 2.67 27.41 0 21.35 0 18.68 2.67"/></g></g></svg>